<?xml version="1.0" standalone="no"?>
<!DOCTYPE svg PUBLIC "-//W3C//DTD SVG 20010904//EN"
 "http://www.w3.org/TR/2001/REC-SVG-20010904/DTD/svg10.dtd">
<svg version="1.0" xmlns="http://www.w3.org/2000/svg"
 width="500.000000pt" height="500.000000pt" viewBox="0 0 500.000000 500.000000"
 preserveAspectRatio="xMidYMid meet">
<metadata>
Created by potrace 1.14, written by Peter Selinger 2001-2017
</metadata>
<g transform="translate(0.000000,500.000000) scale(0.100000,-0.100000)"
fill="#000000" stroke="none">
<path d="M1815 4904 c-179 -31 -267 -60 -435 -144 -168 -85 -277 -153 -444
-280 -213 -160 -277 -220 -368 -342 -233 -312 -386 -635 -497 -1048 -39 -145
-64 -383 -63 -605 1 -193 55 -528 108 -677 42 -116 147 -337 216 -455 69 -118
170 -258 192 -266 8 -3 38 -40 66 -81 122 -182 343 -364 658 -544 120 -69 212
-111 167 -76 -11 8 -74 52 -140 97 -176 120 -288 238 -371 393 -42 78 -40 77
43 -26 91 -112 238 -260 323 -323 79 -58 218 -145 335 -208 38 -22 67 -39 63
-39 -3 0 -45 13 -91 30 -95 33 -111 36 -83 15 29 -22 18 -19 -91 24 l-98 40
36 -32 c119 -104 392 -199 759 -264 141 -25 178 -27 405 -28 238 0 326 8 265
25 -17 4 -1 8 54 13 195 17 492 84 651 147 44 17 123 54 175 81 109 58 410
256 410 270 0 11 -28 -3 -89 -44 -77 -52 -35 -11 92 90 162 130 220 185 275
263 25 36 74 101 107 145 129 168 253 378 348 590 101 226 191 558 197 730 4
83 -2 65 -29 -90 -87 -497 -231 -806 -575 -1235 -80 -100 -234 -258 -321 -330
-91 -75 -242 -173 -385 -250 -63 -35 -117 -65 -120 -68 -3 -2 13 -2 35 2 l40
7 -42 -20 c-63 -30 -249 -88 -353 -111 -91 -20 -285 -41 -370 -39 l-45 1 50
10 c208 38 273 53 365 80 301 89 634 279 914 523 129 112 380 433 461 590 26
50 58 108 71 131 87 153 186 508 225 808 11 83 24 175 29 205 12 63 11 361 0
406 -7 28 -8 29 -10 5 -1 -14 -2 -54 -2 -90 l0 -65 -9 55 c-28 165 -42 237
-51 250 -6 10 -7 -78 -4 -240 4 -219 3 -247 -8 -198 -7 32 -15 61 -19 64 -4 4
-7 -85 -8 -197 -1 -112 -4 -229 -8 -259 -7 -50 -8 -52 -16 -26 -4 15 -5 58 -2
95 3 37 1 74 -4 82 -6 10 -9 8 -9 -11 0 -52 -81 -468 -111 -570 -67 -231 -202
-485 -331 -622 -36 -39 -38 -39 -15 -8 50 72 161 257 200 334 46 93 90 206 79
206 -4 0 -52 -73 -106 -163 -195 -319 -348 -537 -377 -537 -5 0 16 30 48 67
125 148 267 396 356 623 127 325 177 585 175 915 0 169 -15 269 -17 121 0 -49
-4 -87 -7 -83 -3 3 -12 104 -20 224 -8 120 -23 267 -34 326 -22 113 -77 296
-105 344 -16 28 -16 28 -10 -22 4 -27 17 -106 30 -175 29 -150 40 -227 32
-220 -3 3 -11 30 -16 60 -12 66 -52 187 -85 255 -13 28 -32 68 -42 90 -31 72
-125 269 -144 305 -11 19 -24 34 -28 33 -5 -1 -18 13 -28 32 -19 37 -39 48
-30 17 36 -111 116 -392 151 -527 37 -144 96 -435 95 -470 -1 -14 -77 205
-100 285 -38 139 -94 298 -127 364 -38 75 -52 83 -28 16 8 -24 14 -44 12 -46
-1 -2 -25 40 -52 93 -28 52 -58 101 -67 107 -9 7 -38 41 -64 76 -64 88 -263
282 -363 354 -45 32 -84 57 -86 54 -3 -2 26 -40 63 -84 99 -118 251 -325 320
-439 33 -55 90 -145 127 -200 127 -190 234 -444 284 -670 35 -162 44 -273 38
-493 -4 -171 -10 -228 -31 -329 -83 -390 -257 -720 -524 -991 -53 -54 -94 -94
-89 -88 23 32 -1 20 -59 -30 -81 -69 -285 -204 -374 -249 -135 -67 -397 -165
-507 -189 -424 -94 -862 -40 -1258 154 -577 282 -968 805 -1087 1450 -29 154
-31 494 -5 645 26 146 69 306 116 425 39 98 62 144 46 91 -11 -35 11 -17 24
20 9 28 9 30 -5 18 -13 -11 -14 -9 -2 17 20 47 89 174 94 174 3 0 -3 -14 -11
-31 -29 -56 -9 -41 31 23 21 35 78 116 127 181 268 356 620 590 1057 702 87
23 124 27 216 26 91 -1 113 1 124 14 15 18 51 15 128 -11 72 -24 209 -29 273
-11 31 9 63 25 71 34 21 23 33 88 19 97 -6 4 -7 15 -2 27 10 28 -5 147 -25
194 -20 48 -29 39 -14 -15 15 -56 9 -59 -19 -10 -23 42 -82 80 -122 80 -12 0
-51 12 -86 26 -145 57 -455 70 -698 28z m-911 -1119 c-14 -19 -29 -35 -31 -35
-5 0 7 18 36 53 26 31 23 18 -5 -18z m3335 -230 c0 -5 -4 -3 -9 5 -5 8 -9 22
-9 30 0 16 17 -16 18 -35z m-3934 -1386 c37 -349 136 -674 282 -922 26 -45 49
-74 53 -67 4 6 15 -7 26 -32 46 -101 222 -373 293 -452 44 -48 -5 -16 -81 54
-118 108 -267 323 -364 525 -70 146 -108 250 -154 426 -61 233 -80 367 -78
543 1 83 3 131 5 106 2 -25 10 -106 18 -181z m4502 -11 c-3 -7 -5 -2 -5 12 0
14 2 19 5 13 2 -7 2 -19 0 -25z m-10 -55 c-3 -10 -5 -4 -5 12 0 17 2 24 5 18
2 -7 2 -21 0 -30z m-4217 -768 c0 -5 -5 -3 -10 5 -5 8 -10 20 -10 25 0 6 5 3
10 -5 5 -8 10 -19 10 -25z m3355 -411 c-26 -20 -55 -36 -55 -30 0 5 63 46 70
46 3 -1 -4 -8 -15 -16z"/>
<path d="M3610 4212 c0 -6 27 -40 60 -76 33 -37 71 -83 84 -104 13 -20 41 -53
62 -72 l38 -35 -19 30 c-43 70 -195 254 -217 263 -4 2 -8 -1 -8 -6z"/>
<path d="M3956 4171 c-4 -7 -5 -15 -2 -18 9 -9 19 4 14 18 -4 11 -6 11 -12 0z"/>
<path d="M3982 4128 c2 -6 10 -14 16 -16 7 -2 10 2 6 12 -7 18 -28 22 -22 4z"/>
<path d="M4065 4000 c12 -38 56 -130 66 -136 5 -3 12 2 16 12 8 21 -29 93 -64
126 l-25 23 7 -25z"/>
<path d="M3587 3903 c-5 -4 -137 -11 -295 -14 -437 -11 -911 -57 -1250 -123
-97 -19 -211 -37 -252 -41 -41 -4 -128 -15 -193 -26 -65 -10 -139 -19 -164
-19 -40 0 -44 2 -33 15 7 9 9 19 5 23 -4 4 -10 1 -12 -5 -3 -7 -12 -13 -20
-13 -9 0 -30 -10 -47 -23 -17 -13 -39 -27 -50 -30 -15 -6 -16 -10 -6 -22 15
-18 6 -47 -13 -39 -8 3 -20 -2 -27 -11 -17 -21 1 -42 52 -57 23 -7 34 -14 27
-19 -26 -16 0 -39 44 -39 24 0 47 -3 50 -7 12 -11 -13 -31 -32 -26 -23 6 -39
-16 -20 -28 8 -5 32 -9 54 -9 38 -1 39 -1 17 -14 l-24 -13 49 -42 c75 -64 92
-67 326 -47 111 10 231 24 267 32 36 9 135 24 220 34 85 10 209 25 275 34 66
8 165 18 220 21 96 6 99 6 84 -12 -8 -10 -34 -42 -58 -70 -24 -29 -51 -53 -61
-53 -12 0 -20 -8 -22 -22 -2 -12 -17 -32 -35 -44 -18 -12 -30 -24 -28 -26 3
-3 -59 -72 -138 -154 -157 -166 -270 -291 -337 -374 -51 -61 -130 -143 -130
-133 0 4 29 37 65 74 59 60 83 109 55 109 -13 0 -130 -138 -130 -154 0 -20
-85 -93 -118 -100 -15 -4 -166 -10 -337 -15 -302 -8 -367 -16 -408 -46 -28
-20 -29 -52 -1 -74 31 -25 30 -38 -4 -45 -15 -4 -41 -17 -57 -30 l-30 -24 30
-24 c23 -18 43 -23 90 -24 153 -3 179 -6 204 -25 28 -20 69 -21 264 -4 48 5
87 5 87 2 0 -4 -14 -28 -30 -54 -17 -26 -30 -54 -30 -64 0 -25 -27 -85 -65
-142 -19 -29 -46 -83 -62 -121 -17 -42 -35 -71 -45 -74 -10 -2 -18 -9 -18 -14
0 -5 5 -6 11 -2 8 5 8 1 0 -14 -6 -11 -11 -30 -11 -42 0 -12 -11 -35 -25 -52
-14 -16 -25 -37 -25 -46 0 -9 -11 -40 -24 -69 -17 -36 -21 -53 -13 -56 9 -3 9
-8 0 -18 -10 -10 -13 -10 -13 0 0 7 -4 9 -10 6 -5 -3 -10 -17 -10 -30 0 -13
-15 -52 -33 -87 -19 -35 -37 -76 -41 -92 -4 -16 -18 -43 -32 -59 -27 -32 -32
-67 -10 -67 8 0 16 -6 19 -12 2 -7 8 -9 13 -5 5 5 1 14 -9 21 -23 18 -22 29 3
16 17 -9 20 -8 20 11 0 21 30 93 36 86 2 -1 -3 -25 -11 -52 -8 -26 -15 -66
-15 -87 0 -35 2 -39 22 -36 12 2 27 12 33 23 12 25 58 27 63 3 2 -9 -2 -19 -7
-23 -21 -12 -11 -26 10 -15 26 14 34 7 20 -18 -13 -25 9 -47 40 -39 12 3 32 1
45 -5 19 -9 28 -8 41 4 10 9 32 20 48 25 17 5 40 25 53 43 12 19 36 40 53 48
38 19 69 56 125 151 25 42 70 108 100 146 30 39 66 95 80 125 41 89 65 131
161 275 23 35 52 83 64 107 12 24 37 63 55 87 19 24 34 49 34 56 0 6 9 20 21
31 12 10 30 37 41 59 21 40 90 130 117 151 21 16 129 25 356 30 110 2 221 9
246 15 33 9 64 9 105 3 42 -7 79 -6 129 3 39 7 194 19 345 26 245 11 280 15
310 33 19 11 36 28 38 38 6 29 -27 86 -48 86 -22 0 -27 16 -7 23 9 3 8 9 -4
21 -20 22 -145 34 -380 39 -96 2 -180 7 -186 10 -19 12 -346 9 -393 -3 -25 -6
-91 -10 -148 -8 l-103 3 181 190 c225 235 410 474 490 635 12 25 41 66 64 91
22 25 54 62 69 82 22 30 34 37 61 37 30 0 39 7 73 53 21 28 39 59 39 67 1 8 3
20 4 25 4 21 -2 89 -11 112 -6 17 -15 22 -35 21 -15 -2 -29 3 -32 10 -13 40
-83 77 -105 55z m-2208 -302 c11 -7 9 -11 -9 -21 -27 -15 -56 4 -30 20 18 12
21 12 39 1z m140 -257 c2 -2 -2 -4 -10 -4 -8 0 -25 10 -39 21 l-25 20 35 -17
c19 -9 37 -18 39 -20z m1581 -19 c-18 -19 -21 -28 -12 -37 8 -8 16 -8 29 3 16
13 17 12 4 -4 -8 -10 -21 -15 -31 -12 -9 3 -23 -2 -30 -10 -18 -21 -50 -38
-50 -26 0 13 90 111 103 111 6 0 0 -11 -13 -25z m-150 -175 c-12 -16 -26 -30
-33 -30 -6 0 2 14 18 30 16 17 30 30 33 30 2 0 -6 -13 -18 -30z m-60 -64 c0
-2 -8 -10 -17 -17 -16 -13 -17 -12 -4 4 13 16 21 21 21 13z m-115 -124 c-21
-20 -32 -28 -25 -17 26 37 53 65 59 60 3 -3 -12 -22 -34 -43z m-179 -190 c-16
-15 -25 -20 -21 -12 13 25 38 50 44 45 3 -3 -8 -18 -23 -33z m-87 -101 c-19
-22 -35 -38 -37 -36 -2 2 11 22 29 44 19 22 35 38 37 36 2 -2 -11 -22 -29 -44z
m-752 -679 c-58 -87 -95 -162 -157 -317 -51 -129 -123 -279 -166 -346 -13 -21
-38 -64 -54 -96 -17 -32 -28 -47 -25 -33 9 32 24 61 66 130 19 31 56 116 83
190 27 74 75 184 106 245 68 134 183 320 188 305 2 -6 -16 -41 -41 -78z m-124
-683 c-10 -17 -24 -36 -32 -42 -12 -10 -12 -8 -1 13 13 26 40 60 47 60 2 0 -4
-14 -14 -31z m-73 -112 c0 -2 -12 -14 -27 -28 l-28 -24 24 28 c23 25 31 32 31
24z"/>
<path d="M4450 3683 c0 -32 19 -75 30 -68 16 10 11 38 -10 65 -19 25 -20 25
-20 3z"/>
<path d="M4560 3685 c0 -5 12 -46 27 -90 29 -86 45 -80 19 7 -14 50 -45 105
-46 83z"/>
<path d="M1190 3475 c0 -8 5 -15 10 -15 6 0 10 7 10 15 0 8 -4 15 -10 15 -5 0
-10 -7 -10 -15z"/>
<path d="M1222 3469 c2 -6 8 -10 13 -10 5 0 11 4 13 10 2 6 -4 11 -13 11 -9 0
-15 -5 -13 -11z"/>
<path d="M1140 3462 c0 -5 9 -17 19 -26 14 -13 21 -14 27 -5 4 7 -1 18 -11 26
-21 15 -35 17 -35 5z"/>
<path d="M147 1611 c-5 -22 68 -218 103 -276 59 -97 275 -354 287 -341 2 2
-46 75 -108 162 -133 187 -208 311 -245 405 -15 38 -28 69 -29 69 -2 0 -5 -8
-8 -19z"/>
<path d="M4650 1270 c-7 -14 -20 -35 -28 -47 -8 -13 -10 -23 -6 -23 13 0 56
70 51 83 -2 7 -10 1 -17 -13z"/>
</g>
</svg>
